<svg width="1100" height="200" viewBox="0 0 1100 200" fill="none" xmlns="http://www.w3.org/2000/svg">
<g clip-path="url(#clip0_688_2171)">
<rect width="1100" height="200" fill="url(#paint0_linear_688_2171)"/>
<mask id="mask0_688_2171" style="mask-type:alpha" maskUnits="userSpaceOnUse" x="592" y="-43" width="456" height="243">
<rect x="592" y="-42.6571" width="456" height="242.657" fill="url(#paint1_linear_688_2171)"/>
</mask>
<g mask="url(#mask0_688_2171)">
<path d="M862.597 42.1947C838.599 55.9199 837.261 88.4294 839.591 102.969C846.175 103.106 855.392 103.299 859.425 99.4313C862.276 96.6965 857.739 85.5643 863.705 83.7131C869.672 81.8618 870.429 83.4584 881.523 82.1096C888.456 81.2666 895.472 76.4734 899.67 64.7054L870.617 67.7217C874.781 66.9823 882.644 64.5886 893.869 58.6562C908.255 51.0531 925.349 33.6268 926.131 27.7153C918.93 25.5888 886.596 28.4695 862.597 42.1947Z" fill="url(#paint2_linear_688_2171)"/>
<path d="M993.119 279.199C1003.86 237.929 998.164 158.325 921.931 115.163C895.673 100.296 869.882 97.0511 846.265 100.526C839.42 101.533 832.757 103.104 826.319 105.121C790.48 116.347 776.897 130.433 748.668 157.507C742.866 151.457 735.902 148.232 728.943 125.839C723.444 108.148 728.284 97.4027 729.695 88.7828C742.247 79.1669 768.894 57.0026 775.064 45.2722C781.233 33.5418 770.474 27.8729 764.323 26.5048C754.442 26.2922 733.953 25.1098 731.048 22.0815C728.144 19.0532 715.016 20.5008 708.815 21.6031C685.272 24.8037 637.428 31.9301 634.404 34.8308C631.379 37.7315 642.824 46.1337 648.925 49.9722C635.213 55.8559 607.758 69.1054 607.638 75.0344C607.517 80.9634 637.132 83.0836 651.954 83.4026C645.653 89.4457 633.776 102.289 636.68 105.317C639.585 108.346 652.713 106.898 658.914 105.796C657.352 121.827 657.044 161.364 668.3 191.264C679.41 220.776 710.686 253.13 725.508 266.149C724.982 267.586 725.411 276.16 728.29 281.566C737.359 298.59 748.133 301.247 764.152 302.814C771.078 302.467 778.369 296.447 777.511 290.003C776.653 283.559 765.36 279.855 762.99 274.861L785.223 275.34C791.152 275.467 802.716 265.83 807.757 260.996C807.656 265.937 808.182 276.575 811.086 279.604C814.717 283.389 836.649 298.69 844.21 291.438C851.772 284.186 829.84 268.885 841.182 258.008C850.256 249.306 840.423 234.512 834.372 228.203C835.683 224.524 840.465 208.825 856.431 201.255C870.631 194.522 905.85 200.312 923.456 222.706C943.173 247.785 951.746 290.045 936.322 319.371C923.983 342.832 895.894 362.988 883.392 370.133C873.611 364.98 851.204 348.68 839.828 324.709C830.754 333.411 825.765 347.886 824.404 354.035C812.303 341.417 782.898 316.811 762.087 319.329C764.51 346.073 792.039 365.696 805.501 372.165C801.77 373.32 792.796 377.081 786.747 382.883C907.146 441.824 982.376 320.47 993.119 279.199Z" fill="url(#paint3_linear_688_2171)"/>
<path d="M786.12 67.3958C774.021 78.9986 778.6 112.027 786.897 124.715L800.929 115.129L805.045 107.311C807.144 101.427 809.16 99.4929 813.193 95.6253C819.242 89.8239 820.752 80.6343 819.49 77.9733L799.491 89.4109C802.18 86.8325 807.639 77.7255 819.738 66.1227C828.051 58.1494 831.946 49.2529 832.084 42.6692C826.117 44.5205 803.937 50.3081 786.12 67.3958Z" fill="url(#paint4_linear_688_2171)"/>
</g>
</g>
<defs>
<linearGradient id="paint0_linear_688_2171" x1="118.5" y1="18.5001" x2="1050" y2="200" gradientUnits="userSpaceOnUse">
<stop stop-color="#489AE7"/>
<stop offset="1" stop-color="#003E9A"/>
</linearGradient>
<linearGradient id="paint1_linear_688_2171" x1="630.271" y1="-42.6571" x2="1028.46" y2="220.357" gradientUnits="userSpaceOnUse">
<stop stop-color="#1863B7"/>
<stop offset="1" stop-color="#1965B9" stop-opacity="0"/>
</linearGradient>
<linearGradient id="paint2_linear_688_2171" x1="860.744" y1="42.2802" x2="893.147" y2="76.0674" gradientUnits="userSpaceOnUse">
<stop stop-color="#DDE8F2"/>
<stop offset="1" stop-color="#DDE8F2" stop-opacity="0.63"/>
</linearGradient>
<linearGradient id="paint3_linear_688_2171" x1="644.388" y1="25.2556" x2="953.747" y2="347.827" gradientUnits="userSpaceOnUse">
<stop stop-color="#E3E8F0"/>
<stop offset="1" stop-color="#1A81DF" stop-opacity="0"/>
</linearGradient>
<linearGradient id="paint4_linear_688_2171" x1="790.152" y1="63.5282" x2="821.093" y2="95.7905" gradientUnits="userSpaceOnUse">
<stop stop-color="#DDE8F2"/>
<stop offset="1" stop-color="#DDE8F2" stop-opacity="0.63"/>
</linearGradient>
<clipPath id="clip0_688_2171">
<rect width="1100" height="200" fill="white"/>
</clipPath>
</defs>
</svg>
