<svg width="27" height="35" viewBox="0 0 27 35" fill="none" xmlns="http://www.w3.org/2000/svg">
<path d="M4.33552 12.6679C6.41657 12.1476 8.23749 13.8963 8.88782 14.8356C8.52653 15.1969 8.02072 15.7027 7.58716 15.7027C7.2806 15.7027 6.93684 14.8356 6.50328 15.0524C6.06973 15.2692 6.11309 15.3993 5.4194 15.9195C4.98585 16.2447 4.33552 16.3531 3.46842 15.9195L5.2574 14.5281C4.98448 14.7103 4.41561 14.9986 3.46842 15.2692C2.25447 15.616 0.361293 15.5582 0 15.2692C0.289035 14.7634 2.25447 13.1881 4.33552 12.6679Z" fill="#CBD2DD"/>
<path d="M9.75487 32.95C6.93678 31.2158 2.98062 26.4519 4.9316 19.9407C5.60361 17.6979 6.8736 16.1311 8.38278 15.0572C8.8202 14.746 9.27772 14.4762 9.74659 14.2433C12.3565 12.9472 13.8736 13.0066 16.9085 13.0066C16.9085 12.3562 17.1253 11.8016 16.3123 10.1738C15.6701 8.88782 14.822 8.54601 14.2801 8.13905C13.0607 8.2747 10.3781 8.46461 9.40261 8.13905C8.42712 7.81349 8.72518 6.91819 8.99616 6.51124C9.5381 5.96864 10.622 4.80204 10.622 4.47648C10.622 4.15092 11.4349 3.52692 11.8413 3.25562C13.3317 2.17041 16.3936 0 16.7188 0C17.044 0 16.8543 1.0852 16.7188 1.62781C17.8027 1.22085 20.0517 0.488338 20.3769 0.813901C20.7021 1.13946 19.1575 2.84866 18.3446 3.66257C19.022 3.66257 20.3769 3.74396 20.3769 4.06952C20.3769 4.39508 19.564 5.01908 19.1575 5.29038C20.1059 6.10428 22.2466 8.30183 23.2221 10.5808C24.1849 12.8301 24.171 16.3216 24.0402 17.8467C24.1469 17.899 24.5833 18.4021 24.7124 18.8595C25.1189 20.2999 24.6582 21.0273 23.8453 21.9754C23.4389 22.3279 22.7072 22.3824 22.4092 21.9754C22.1111 21.5685 22.5447 20.7546 22.4092 20.3476L21.1898 21.5685C20.8646 21.894 19.6995 21.9754 19.1575 21.9754C19.4285 22.2467 19.9704 22.8707 19.9704 23.1963C19.9704 23.6032 19.564 25.638 18.7511 25.638C17.9382 25.638 18.3446 23.6032 17.1253 23.6032C16.1498 23.6032 15.9059 22.2467 15.9059 21.5685C15.6349 21.4328 14.5239 20.8105 13.2233 21.2441C12.0665 21.6297 10.4052 23.8454 10.622 26.045C10.8647 28.5083 12.6543 31.3353 15.093 32.1493C17.044 32.8004 19.6995 32.4206 20.7834 32.1493C21.0543 31.3353 21.4337 29.2192 20.7834 27.2658C21.7588 27.2658 22.8156 27.8084 23.2221 28.0797C23.2221 26.7232 23.5473 23.766 24.8479 22.7893C26.1486 24.4172 25.6608 26.9945 25.2544 28.0797C25.5253 27.9441 26.2299 27.6728 26.8802 27.6728C23.3034 37.4396 12.573 34.6842 9.75487 32.95Z" fill="#CBD2DD"/>
<path d="M9.97173 9.97168C11.2724 9.97168 12.7898 12.0672 13.0066 13.2233L11.7059 13.4401L11.0556 13.2233C10.6221 13.0065 10.4053 13.0065 9.97173 13.0065C9.3214 13.0065 8.74334 12.573 8.67108 12.3562L10.4053 11.9227C10.1163 11.9227 9.3214 11.7059 8.02075 11.7059C7.12696 11.7059 6.43106 11.4169 6.06976 11.0556C6.50332 10.8388 8.05624 9.97168 9.97173 9.97168Z" fill="#CBD2DD"/>
<path fill-rule="evenodd" clip-rule="evenodd" d="M20.7726 32.1519C20.7762 32.151 20.7798 32.1501 20.7834 32.1492C21.0544 31.3353 21.4337 29.2191 20.7834 27.2657C21.7589 27.2657 22.8157 27.8083 23.2221 28.0796C23.2221 26.7231 23.5473 23.766 24.848 22.7893C26.1486 24.4171 25.6609 26.9944 25.2544 28.0796C25.5254 27.944 26.2299 27.6727 26.8802 27.6727C25.5054 31.4268 23.1298 33.3648 20.5443 34.2167C20.7064 33.5045 20.7504 32.8097 20.7726 32.1519Z" fill="#CBD2DD"/>
<circle cx="12.6287" cy="5.41228" r="0.601368" fill="#E3E8F0"/>
</svg>
