<svg width="693" height="527" viewBox="0 0 693 527" fill="none" xmlns="http://www.w3.org/2000/svg">
<path d="M403.903 234.046L404.133 234.188L404.378 234.075L408.438 232.186H409.368H410.408H410.484L410.556 232.163L413.364 231.293L417.31 235.883L417.39 235.976L417.504 236.021L424.576 238.841L426.552 244.353V251.586L415.546 253.448L404.146 254.412H395.845H395.819L395.794 254.415L386.432 255.382L386.425 255.383L378.11 256.35L378.104 256.351L368.825 257.31L359.539 255.39L359.512 255.384L359.484 255.382L349.082 254.414L349.033 254.41L348.984 254.415L339.622 255.382L339.493 255.396L339.387 255.47L335.226 258.373L335.156 258.422L335.106 258.492L333.357 260.933L327.558 255.538L324.46 251.695L324.451 251.685L324.443 251.675L319.248 245.876L319.242 245.869L315.137 241.095L313.265 236.741L318.073 234.058L318.329 233.915V233.621V227.815V218.137V209.457L319.366 200.777L319.391 200.568L319.258 200.404L316.138 196.533L315.988 196.346H315.749H313.668H311.971L311.047 192.909V184.265V184.128L310.977 184.009L305.861 175.443L306.884 165.931L306.889 165.88L306.884 165.829L305.844 155.184L305.842 155.164L305.839 155.144L304.822 149.469L306.779 144.007L311.762 142.153L311.762 142.153L311.773 142.148L319.009 139.263L329.363 137.337L329.425 137.325L329.482 137.299L331.462 136.377H334.472H335.513H335.623L335.723 136.331L339.811 134.429L347.716 133.51L350.675 139.017L350.782 139.216L351.003 139.268L354.91 140.177L357.927 147.661L361.032 157.29L362.066 163.063L362.084 163.161L362.138 163.246L365.179 167.961V176.523V183.245L364.202 187.788L358.186 190.586L358.159 190.599L358.134 190.615L351.893 194.486L351.712 194.598L351.667 194.806L350.627 199.645L350.553 199.989L350.852 200.175L357.094 204.046L357.103 204.052L357.113 204.057L362.286 206.945L367.461 210.796L367.571 210.878L367.708 210.892L377.07 211.86L377.095 211.863H377.121H387.327L391.317 215.575L394.386 219.382L399.548 228.986L400.575 231.854L400.634 232.019L400.783 232.111L403.903 234.046Z" fill="#F3F9FE" stroke="#D4D4D4"/>
<path d="M427.232 252.048V260.245V260.464L427.393 260.612L432.436 265.269L431.522 267.799L427.354 272.611L423.161 277.451L417.919 281.323L417.842 281.38L417.791 281.462L413.579 288.27L410.472 292.095L406.301 294.984L406.184 295.065L406.127 295.196L402.101 304.49L400.618 303.805L397.526 297.143L395.414 292.267L395.211 291.797L394.746 292.012L392.731 292.942H391.894L389.879 292.012L389.705 291.931L389.522 291.988L386.35 292.964L383.178 293.941L383.146 293.95L383.116 293.964L379.19 295.777L374.149 291.122L374.091 291.068L374.019 291.035L367.675 288.106L367.638 288.089L367.599 288.078L357.026 285.149L357.016 285.146L357.005 285.144L352.794 284.171L349.639 283.2L349.364 283.116L349.152 283.311L347.232 285.084L343.278 284.171L340.123 283.2L340.051 283.178H339.976H330.46H330.265L330.121 283.311L328.032 285.24L324.616 287.606V281.792L325.656 277.951L325.735 277.658L325.513 277.453L323.559 275.648V275.211L329.612 272.416L329.64 272.403L329.665 272.387L336.009 268.482L336.412 268.234L336.186 267.818L335.14 265.884L333.147 261.284L335.045 258.654L339.098 255.847L348.437 254.889L358.934 255.858L368.423 257.806L368.498 257.821L368.574 257.813L378.09 256.837L378.096 256.836L386.548 255.86L386.555 255.86L396.039 254.887H404.471H404.492L404.513 254.885L416.143 253.909L416.164 253.907L416.184 253.903L427.232 252.048Z" fill="#F3F9FE" stroke="#D4D4D4"/>
<path d="M393.189 293.204L394.812 292.447L396.699 296.849L396.699 296.849L396.704 296.861L399.839 303.689L399.916 303.856L400.082 303.933L402.033 304.844L407.18 313.49L407.278 313.655L407.461 313.712L413.46 315.578L415.425 323.832L411.41 328.516L407.237 333.385L407.23 333.393L402.011 339.238L402.002 339.248L401.994 339.258L398.899 343.11L393.724 346.974L393.702 346.99L393.682 347.009L388.476 351.867L383.299 355.733L378.102 358.643L378.049 358.673L378.005 358.714L369.644 366.517L369.602 366.557L369.57 366.605L364.43 374.28L357.38 377.1L350.25 376.149L339.852 372.267L339.839 372.262L339.826 372.258L336.723 371.293L330.534 368.404L324.307 363.562L324.278 363.539L324.245 363.52L319.019 360.594L319.003 360.585L318.986 360.577L312.716 357.651L312.685 357.637L312.653 357.627L303.683 354.836L304.632 350.405L304.643 350.354V350.301V340.546V340.481L304.626 340.417L302.536 332.614L302.519 332.549L302.485 332.491L296.514 322.274L301.153 320.542L305.302 319.574L305.404 319.55L305.487 319.488L310.713 315.586L310.753 315.556L310.787 315.518L316.012 309.666L316.067 309.605L316.099 309.53L318.181 304.673L321.256 298.933L327.443 294.121L327.636 293.971V293.726V290.8V290.64L327.543 290.509L325.746 287.994L329.513 285.357L329.541 285.337L329.567 285.313L331.513 283.496H340.646L343.709 284.449L343.726 284.455L343.744 284.459L347.924 285.434L348.184 285.495L348.379 285.313L350.257 283.56L353.115 284.449L353.132 284.455L353.15 284.459L357.32 285.432L367.721 288.344L373.883 291.219L379.05 296.042L379.297 296.273L379.603 296.13L383.753 294.193L386.856 293.228L389.806 292.31L391.721 293.204L391.822 293.251H391.933H392.978H393.089L393.189 293.204Z" fill="#F3F9FE" stroke="#D4D4D4"/>
<path d="M424.06 319.408L416.255 322.991L414.309 314.95L414.242 314.673L413.969 314.59L407.884 312.728L402.894 304.482L406.912 295.261L410.972 292.465L411.031 292.425L411.076 292.369L414.21 288.534L414.23 288.509L414.247 288.481L418.375 281.851L423.52 278.072L423.565 278.039L423.601 277.997L427.78 273.203L431.958 268.408L432.019 268.338L432.051 268.25L433.096 265.373L433.209 265.06L432.964 264.834L427.903 260.188V252.36L433.595 253.23L433.653 253.239L433.712 253.234L445.202 252.276L445.27 252.27L445.333 252.247L450.556 250.329L450.575 250.322L450.592 250.314L452.582 249.4H458.631L462.699 251.267L469.941 255.067L476.161 260.776L480.339 264.612L480.356 264.627L480.374 264.641L486.641 269.435L486.776 269.538H486.945H488.989L504.613 272.407L504.658 272.415H504.703H508.227L503.197 290.887L500.106 295.615L500.086 295.647L500.07 295.682L494.849 307.185L494.847 307.19L491.722 313.883L481.518 332.616L474.651 329.014L474.642 329.009L469.481 326.166L465.347 322.371L465.258 322.289L465.141 322.257L454.695 319.381L454.63 319.363H454.562H444.116H436.804H424.269H424.159L424.06 319.408Z" fill="#F3F9FE" stroke="#D4D4D4"/>
<path d="M559.202 255.002L559.195 255.029L559.191 255.056L558.144 261.872L556.049 270.64L556.005 270.826L556.095 270.993L559.244 276.853L559.284 276.926L559.344 276.982L563.544 280.888L563.884 281.205L564.225 280.888L567.251 278.072L576.307 277.137L579.033 279.672L574.973 289.113L574.953 289.158L574.943 289.206L572.854 298.923L570.782 303.741L568.718 307.58L564.573 312.4L559.364 317.246L554.137 321.135L554.107 321.158L554.08 321.185L542.54 332.896L539.434 335.785L536.332 337.709L527.959 342.576L521.739 345.47L516.643 346.418L511.486 345.458L506.265 344.487L500.011 342.548L487.457 337.682L480.572 334.022L493.992 308.095L493.998 308.082L494.004 308.069L499.237 296.386L502.366 291.535L502.409 291.469L502.429 291.394L507.67 271.892L510.777 264.184L514.923 259.364L514.966 259.314L514.995 259.254L519.037 250.793L525.997 251.718L537.516 254.64L537.653 254.675L537.787 254.633L547.235 251.704L547.31 251.68L547.373 251.636L551.537 248.731L555.392 246.939L559.344 250.615L560.174 251.387L559.202 255.002Z" fill="#F3F9FE" stroke="#D4D4D4"/>
<path d="M503.786 202.802L503.696 202.969L503.74 203.153L505.835 211.978L506.882 217.857L506.889 217.898L506.903 217.937L510.05 226.776L510.063 226.811L510.08 226.844L513.228 232.737L513.243 232.765L513.261 232.791L515.282 235.629L516.318 246.299L516.33 246.419L516.395 246.52L519.393 251.197L515.344 259.726L511.19 264.586L511.137 264.648L511.106 264.725L508.085 272.268H504.273L488.582 269.33L488.536 269.321H488.49H486.564L480.423 264.53L476.243 260.617L469.948 254.725L469.9 254.68L469.842 254.649L462.498 250.72L462.487 250.714L462.474 250.708L458.278 248.744L458.177 248.697H458.066H451.771H451.66L451.559 248.744L449.479 249.718L444.317 251.651L432.905 252.622L427.093 251.715V244.286V244.2L427.064 244.119L425.101 238.605L431.054 234.889L431.076 234.876L431.097 234.859L437.391 229.949L437.449 229.904L437.491 229.845L441.679 223.964L444.813 220.052L449.004 215.148L449.019 215.131L449.031 215.113L451.121 212.178L457.334 204.423L461.403 202.519L469.772 199.581L469.899 199.536L469.986 199.434L474.058 194.669L481.213 193.712L481.244 193.708L481.276 193.7L488.619 191.735L488.793 191.689L488.897 191.542L492.989 185.796L500.128 183.887L506.982 182.97L508.95 192.184L506.923 196.929L503.786 202.802Z" fill="#F3F9FE" stroke="#D4D4D4"/>
<path d="M582.147 175.377V175.443L582.164 175.507L584.219 183.1L581.153 190.655L578.031 195.462L577.951 195.586V195.734V198.642V198.82L578.062 198.957L581.065 202.657L580.103 207.992L576.143 209.821L576.003 209.886L575.924 210.017L570.678 218.742L570.607 218.861V219V223.685L566.555 229.301L562.429 232.16L562.377 232.196L562.336 232.244L558.14 237.091L558.073 237.167L558.042 237.264L554.962 246.75L550.964 248.597L550.925 248.615L550.889 248.64L546.756 251.504L537.522 254.348L526.118 251.474L526.089 251.467L526.061 251.463L518.945 250.524L515.99 245.973L514.953 235.43L514.94 235.296L514.861 235.187L512.781 232.305L509.667 226.55L506.547 217.9L505.505 212.125L505.503 212.111L505.499 212.097L503.446 203.559L506.502 197.911L506.513 197.892L506.521 197.872L508.619 193.025L508.683 192.877L508.649 192.72L506.562 183.079V175.426L508.602 165.06L514.618 162.281L518.764 161.323L518.804 161.314L518.842 161.299L528.167 157.469L537.484 158.425L537.49 158.426L547.981 159.395L548.079 159.404L548.174 159.375L554.421 157.451L563.77 156.491L576.205 157.449L581.148 160.189L582.147 165.728V175.377Z" fill="#F3F9FE" stroke="#D4D4D4"/>
<path d="M500.382 166.919L509.099 165.118L507.143 175.119L507.134 175.167V175.215V182.587L500.215 183.506L500.184 183.51L500.153 183.518L492.8 185.471L492.627 185.517L492.522 185.663L488.425 191.374L481.277 193.273L473.956 194.245L473.767 194.27L473.643 194.414L469.529 199.194L461.253 202.078L461.229 202.086L461.206 202.097L457.005 204.049L456.9 204.098L456.827 204.189L450.524 211.999L450.515 212.01L450.507 212.021L448.419 214.932L444.232 219.797L444.227 219.803L444.222 219.809L441.071 223.714L441.062 223.725L441.054 223.736L436.895 229.535L430.671 234.355L424.605 238.114L417.6 235.324L413.479 230.535L413.265 230.287L412.952 230.384L409.873 231.338H408.898H407.848H407.738L407.637 231.384L403.681 233.223L400.907 231.505L399.916 228.74L399.903 228.705L399.885 228.672L394.633 218.91L394.611 218.869L394.582 218.833L391.431 214.928L391.409 214.9L391.382 214.875L387.181 210.97L387.037 210.837H386.841H376.362L367.071 209.877L361.93 206.054L361.904 206.035L361.875 206.019L356.633 203.096L350.64 199.382L351.572 195.053L357.668 191.276L363.943 188.36L364.169 188.255L364.221 188.012L365.271 183.131L365.283 183.079V183.025V176.192V167.405V167.258L365.203 167.134L362.106 162.337L361.073 156.578L361.067 156.545L361.057 156.513L357.906 146.75L357.896 146.719L357.881 146.689L354.623 139.855L354.487 139.57H354.172H351.427L347.608 132.471L356.6 127.828L360.581 125.978L364.564 127.829L368.82 129.989L376.03 135.584L376.166 135.689H376.337H379.505L383.301 140.385L383.323 140.412L383.349 140.437L388.601 145.318L388.669 145.381L388.756 145.416L396.109 148.345L396.109 148.345L396.12 148.349L401.046 150.18V152.762V157.643V157.834L401.173 157.977L406.425 163.834L406.518 163.937L406.65 163.978L416.029 166.884L420.167 169.768L420.187 169.782L420.209 169.795L425.461 172.723L425.602 172.802L425.762 172.783L433.992 171.827L440.146 175.64L440.364 175.775L440.601 175.677L450.054 171.772L450.186 171.718L450.269 171.602L454.442 165.785L458.606 161.914L462.808 158.009L462.845 157.975L462.874 157.934L467.025 152.146L470.861 149.473L475.78 153.13L479.945 157.969L479.963 157.99L479.984 158.009L485.235 162.89L485.255 162.909L485.277 162.925L490.529 166.83L490.662 166.929H490.828H500.281H500.332L500.382 166.919Z" fill="#F3F9FE" stroke="#D4D4D4"/>
<path d="M364.378 126.691L360.954 125.905L363.601 122.664L363.714 122.526V122.348V116.551V116.373L363.601 116.235L360.625 112.591L361.556 110.026L363.619 107.185L363.804 106.929L363.653 106.652L361.557 102.801L358.407 96.0528L358.404 96.0464L354.469 87.9168L358.066 87.0911L358.195 87.0615L358.292 86.972L365.656 80.2097L365.718 80.1535L365.757 80.0805L369.902 72.4696L376.1 68.6752L376.234 68.5929L376.297 68.4485L378.401 63.6182L378.443 63.5227V63.4185V50.8599V50.8212L378.437 50.783L377.407 44.1641L379.402 39.5856L385.531 34.8951L392.799 32.9885L392.808 32.9859L392.818 32.983L395.903 32.0388H397.932H398.789L402.781 35.7043L405.895 42.3769L405.925 42.4407L405.972 42.4938L410.153 47.2939L414.341 54.0222L414.34 54.0222L414.346 54.0315L417.492 58.845L418.404 60.5204L416.43 64.1455L416.412 64.1786L416.399 64.214L414.295 70.0103L414.286 70.0363L414.279 70.0633L412.177 78.7508L410.074 86.4724L410.071 86.4848L410.068 86.4974L409.016 91.3276L409.005 91.3802V91.434V95.2982V95.4255L409.066 95.5373L411.17 99.4015L411.24 99.5299L411.368 99.6004L416.628 102.499L416.741 102.561H416.869H420.025H420.135L420.234 102.515L422.096 101.66L425.018 103.449L432.342 108.253L435.468 111.123L435.482 111.136L435.497 111.148L442.749 116.856L444.805 122.518L444.857 122.661L444.979 122.751L450.136 126.539L453.238 133.186L453.28 133.276L453.353 133.343L459.665 139.139L459.679 139.152L459.694 139.163L466.978 144.896L469.87 150.207L466.032 152.85L465.962 152.898L465.911 152.968L461.733 158.723L457.561 162.554L453.353 166.418L453.316 166.452L453.287 166.492L449.162 172.173L440.06 175.888L433.963 172.156L433.816 172.066L433.645 172.086L425.387 173.033L420.288 170.224L416.101 167.34L416.037 167.297L415.963 167.274L406.655 164.425L402.545 158.764L400.536 155.997V154.315L401.558 151.5L401.728 151.032L401.261 150.86L396.006 148.93L388.733 146.068L383.562 141.319L379.372 136.51L379.322 136.452L379.256 136.412L376.1 134.48L369.806 130.627L364.562 126.775L364.479 126.714L364.378 126.691Z" fill="#F3F9FE" stroke="#D4D4D4"/>
<path d="M472.174 110.176L470.112 113.068L464.92 117.921L464.799 118.035L464.769 118.199L463.736 123.998L459.582 132.736L459.55 132.802L459.539 132.875L458.637 138.781L453.128 133.63L450.032 126.877L449.979 126.761L449.877 126.684L444.77 122.865L442.729 117.141L442.682 117.008L442.571 116.919L435.267 111.065L432.144 108.146L432.114 108.118L432.08 108.095L424.761 103.207L424.754 103.203L424.747 103.199L421.611 101.244L421.38 101.1L421.134 101.215L419.144 102.145H416.249L411.262 99.3481L409.299 95.6771V91.945L410.331 87.1212L412.419 79.3128L412.419 79.3129L412.422 79.2993L414.507 70.5277L416.576 64.723L418.65 60.8455L418.776 60.6097L418.65 60.3739L417.605 58.4188L417.595 58.4012L417.584 58.3845L414.451 53.5012L410.271 46.6629L410.25 46.6289L410.224 46.5986L406.087 41.7638L403.012 35.0558L401.979 26.3649V18.6678L406.087 8.10804L414.204 0.518754L424.436 1.4754L424.46 1.47758H424.483H433.653L436.56 5.10123L437.584 10.8411L437.601 10.9394L437.655 11.0234L440.792 15.9113L440.958 16.1703L441.264 16.1385L450.675 15.161L450.759 15.1523L450.835 15.1166L454.97 13.1835L458.842 12.2786L462.829 16.0065L462.973 16.1412H463.17H468.063L473.127 28.4485V37.095L472.099 41.8989L467.927 53.5988L467.898 53.6802V53.7667V61.5873V61.6738L467.927 61.7552L471.055 70.5276L473.14 79.2993L473.145 79.318L473.15 79.3364L476.273 89.0663L477.312 97.8166L477.318 97.861L477.331 97.9037L479.388 104.635L477.498 116.122L475.071 113.097L472.988 110.176L472.581 109.605L472.174 110.176Z" fill="#F3F9FE" stroke="#D4D4D4"/>
<path d="M573.82 124.212L573.821 124.22L573.823 124.229L574.852 130.888L571.811 137.448L565.595 142.237L565.498 142.312L565.447 142.423L562.291 149.231L562.229 149.364L562.249 149.509L563.232 156.779L554.277 157.698L554.228 157.703L554.18 157.718L547.963 159.634L537.546 158.671L537.541 158.671L528.077 157.698L527.952 157.686L527.836 157.733L518.405 161.609L514.237 162.572L514.187 162.584L514.14 162.605L507.88 165.499L498.518 167.423H489.265L484.159 163.646L478.939 158.82L474.749 153.978L474.713 153.936L474.669 153.903L469.498 150.079L466.395 144.341L466.346 144.25L466.265 144.187L459.129 138.531L460.125 132.083L464.301 123.396L464.331 123.335L464.343 123.268L465.365 117.597L470.502 112.847L470.539 112.813L470.569 112.773L472.267 110.417L473.966 112.773L473.974 112.784L473.983 112.795L477.139 116.686L477.838 117.548L478.021 116.453L480.125 103.808L480.144 103.691L480.109 103.578L478.018 96.8128L476.972 88.1035L476.966 88.0552L476.951 88.0089L473.801 78.3006L471.701 69.5655L471.695 69.5387L471.685 69.5128L468.559 60.8409V53.2343L472.737 41.6443L472.749 41.613L472.756 41.5805L473.808 36.7171L473.819 36.6648V36.6114V28.1365L479.852 24.4183L485.065 22.4902L485.158 22.4558L485.231 22.3884L489.439 18.4977L489.476 18.4636L489.506 18.423L493.564 12.7945H499.545L502.63 13.745L502.702 13.7672H502.777H506.985H507.031L507.076 13.7588L512.336 12.7862L512.398 12.7747L512.455 12.7483L516.594 10.8349L523.577 9.91265L528.664 17.4379L528.696 17.4858L528.739 17.525L533.999 22.3884L534.143 22.5212H534.339H539.599H539.674L539.746 22.4991L542.661 21.6008L547.429 25.1273L544.384 34.5117L544.381 34.5184L542.292 41.2801L541.263 43.1823L541.157 43.3791L541.233 43.5897L542.285 46.5077L542.292 46.5284L542.301 46.5484L545.44 53.3185L547.502 60.9462L545.431 71.4785L543.376 76.2295L540.263 80.0668L540.151 80.2045V80.3818V84.2725V84.3599L540.181 84.4421L542.27 90.2386L543.307 95.9893V105.671V105.819L543.388 105.944L546.544 110.807L546.692 111.035H546.963H554.328H554.417L554.501 111.004L559.678 109.089H564.653L568.717 112.847L568.743 112.871L568.772 112.891L572.795 115.681L573.82 124.212Z" fill="#F3F9FE" stroke="#D4D4D4"/>
<path d="M226.824 238.806L225.947 242.877L217.125 235.601L217.109 235.588L217.092 235.576L204.583 226.87L203.589 225.026L203.549 224.953L203.488 224.896L197.205 219.066L193.278 214.511L198.885 206.706L199.442 207.739L197.436 212.391L197.351 212.589L197.436 212.787L199.537 217.662L199.668 217.964H199.997H208.402H208.427L208.453 217.961L217.909 216.986L218.172 216.959L218.297 216.726L221.449 210.877L221.477 210.825L221.492 210.769L222.533 206.905L224.62 202.063L224.673 201.94L224.657 201.806L223.618 193.128L225.694 185.422L225.726 185.305L225.7 185.187L223.622 175.543L225.682 165.983L229.823 159.259L232.955 155.384L233.008 155.319L233.037 155.239L235.138 149.39L235.147 149.364L235.154 149.337L237.255 140.563L237.275 140.479L237.266 140.393L236.246 130.929L241.269 127.2L241.471 127.05V126.798V125.823V125.77L241.46 125.718L240.435 120.962L241.454 117.179L242.505 113.28L242.522 113.216V113.149V108.275V107.981L242.265 107.838L237.064 104.943L233.319 101.467L237.566 103.832L243.86 107.725L244 107.812L244.165 107.798L255.722 106.823L255.769 106.819L255.814 106.807L266.32 103.882L266.437 103.85L266.526 103.767L269.62 100.896L273.741 98.9841L283.187 95.0886L283.297 95.0431L283.375 94.9529L287.578 90.0784L287.6 90.0523L287.619 90.0234L290.68 85.2883L295.765 83.4012L301.732 81.5556L304.671 85.1917L304.737 85.2736L304.83 85.3218L314.269 90.1873L317.256 92.035L318.234 94.7597L320.328 105.446L320.33 105.457L320.333 105.467L322.434 114.241L322.434 114.241L322.438 114.254L324.539 122.054L324.559 122.129L324.602 122.195L327.673 126.946V131.454L324.681 134.231L319.497 139.042L312.235 141.93L306.987 143.877L306.769 143.958L306.69 144.177L304.589 150.027L304.544 150.152L304.567 150.284L305.615 156.114L306.658 166.766L305.635 176.257L298.457 181.966L294.268 184.882L294.182 184.941L294.128 185.03L289.925 191.854L289.851 191.975V192.116V198.593L284.924 200.422L284.915 200.425L284.907 200.428L275.451 204.328L275.368 204.362L275.302 204.423L271.099 208.323L271.053 208.366L271.02 208.418L267.868 213.293L267.848 213.322L267.834 213.354L264.735 220.063L259.584 223.886L259.533 223.924L259.494 223.974L256.515 227.659L248.589 226.74L247.775 225.712V224.288V224.009L247.538 223.863L244.386 221.913L244.123 221.75L243.86 221.913L240.708 223.863L240.643 223.903L240.592 223.961L236.39 228.836L232.206 233.689L226.973 238.545L226.857 238.652L226.824 238.806Z" fill="#F3F9FE" stroke="#D4D4D4"/>
<path d="M310.714 192.317V192.383L310.731 192.447L311.785 196.352L311.884 196.722H312.267H314.374H316.243L319.12 200.278L318.092 208.856L318.088 208.885V208.915V217.703V227.466V233.031L313.078 235.817L312.683 236.037L312.862 236.452L314.969 241.334L314.999 241.404L315.049 241.462L319.263 246.344L319.263 246.344L319.27 246.352L324.528 252.201L327.68 256.096L327.703 256.124L327.729 256.148L333.972 261.935L336.037 266.72L336.046 266.74L336.056 266.759L336.886 268.297L330.992 271.939L324.698 274.856L324.627 274.889L324.569 274.943L321.552 277.738H313.321H313.298L313.275 277.741L302.745 278.717L302.74 278.717L291.157 279.693L291.113 279.697L291.071 279.708L283.85 281.62L273.539 277.797L266.367 272.1L264.298 262.511L264.246 262.267L264.02 262.163L257.699 259.233L257.669 259.219L257.636 259.209L251.348 257.267L247.165 255.328L238.809 251.456L233.6 246.627L233.57 246.6L233.536 246.577L226.447 241.884L227.395 237.49L232.546 232.715L232.567 232.696L232.585 232.675L236.799 227.793L240.962 222.969L243.794 221.219L246.692 223.01L246.812 223.085H246.954H247.508V225.514V225.959L247.95 226.01L256.378 226.987L256.651 227.018L256.824 226.805L259.944 222.948L265.161 219.081L265.263 219.005L265.317 218.889L268.462 212.086L271.569 207.287L275.671 203.485L285.06 199.617L290.319 197.667L290.645 197.546V197.199V190.506L294.73 183.88L298.858 181.011L298.871 181.001L298.884 180.991L305.811 175.488L310.714 183.668V192.317Z" fill="#F3F9FE" stroke="#D4D4D4"/>
<path d="M203.719 225.135L203.776 225.24L203.874 225.308L216.469 234.054L225.912 241.826L225.932 241.843L225.954 241.857L233.277 246.7L238.502 251.538L238.56 251.592L238.631 251.625L247.039 255.517L251.243 257.463L251.273 257.477L251.305 257.487L257.579 259.424L263.628 262.224L265.678 271.712L265.715 271.886L265.856 271.998L273.212 277.836L273.275 277.886L273.35 277.913L283.859 281.806L284.008 281.861L284.161 281.82L291.475 279.885L302.992 278.916L302.996 278.915L313.483 277.944H321.868H322.064L322.207 277.811L324.521 275.67V275.717L324.681 275.865L326.561 277.606L325.589 281.207L325.572 281.271V281.337V288.148V288.31L325.666 288.441L327.674 291.229V293.741L321.562 298.457L321.478 298.522L321.428 298.615L318.275 304.453L318.265 304.473L318.256 304.493L316.186 309.283L311.02 315.023L305.889 318.824L301.787 319.773L301.756 319.781L301.726 319.792L296.681 321.66L289.555 317.89L284.331 314.02L284.304 314.001L284.276 313.985L279.021 311.066L278.988 311.047L278.952 311.034L273.697 309.088L273.556 309.036L273.41 309.069L269.207 310.043L269.156 310.054L269.109 310.076L265.149 311.909L259.072 308.158L258.952 308.083H258.81H247.249H234.727L229.668 306.21L223.444 299.486L223.431 299.472L223.416 299.459L217.111 293.62L217.053 293.567L216.981 293.533L208.573 289.641L200.212 285.77L194.998 281.908L194.972 281.889L194.943 281.873L189.694 278.957L178.139 272.148L178.136 272.146L169.728 267.281L169.708 267.269L169.687 267.26L165.511 265.326L159.272 261.475L155.103 257.616L155.078 257.592L155.049 257.572L150.874 254.673L144.683 248.941L143.829 246.567L151.821 242.867L156.025 240.921L160.172 239.001L170.619 237.066L181.129 235.12L181.221 235.103L181.301 235.054L184.454 233.108L184.691 232.961V232.682V231.709V231.665L184.683 231.621L183.64 225.826V221.191L187.686 216.508L192.524 212.925L196.424 217.44L196.442 217.461L196.463 217.48L202.708 223.262L203.719 225.135Z" fill="#F3F9FE" stroke="#D4D4D4"/>
<path d="M180.574 297.116L180.661 297.141L180.751 297.133L189.472 296.381L193.498 300.33L195.59 305.351L195.603 305.383L195.62 305.412L199.871 312.639L203.997 321.303L202.038 324.047L201.818 324.355L202.054 324.65L203.649 326.644V328.428L196.852 330.266L196.761 330.29L196.686 330.346L191.407 334.222L191.356 334.259L191.316 334.308L188.149 338.185L188.067 338.285L188.044 338.412L185.933 350.04L185.925 350.084V350.129V353.93L183.86 360.562L179.686 366.309L179.612 366.411L179.595 366.536L178.547 374.235L176.709 379.295L176.206 378.832L176.148 378.779L176.076 378.746L171.853 376.808L171.796 376.782L171.735 376.771L161.206 374.838L155.036 372.95L150.907 368.213L150.78 368.067L150.587 368.045L142.141 367.075L142.056 367.066L141.973 367.085L133.527 369.023L133.398 369.053L133.301 369.142L129.146 372.955L121.843 375.828L121.789 375.849L121.742 375.882L117.607 378.728L112.554 379.656L109.64 378.764L105.511 374.027L105.493 374.006L105.472 373.987L101.249 370.111L101.191 370.058L101.12 370.025L97.1093 368.184L94.0374 356.905L96.1186 348.309L96.1235 348.289L96.1267 348.268L97.1602 341.628L101.288 336.891L101.411 336.75V336.563V332.687V332.467L101.249 332.318L97.0634 328.476L92.9346 322.791L90.8829 312.433L95.0014 305.818L95.0172 305.792L95.0299 305.765L98.0904 299.21L103.694 298.075L104.782 303.133L104.813 303.277L104.917 303.381L110.38 308.843L112.044 313.421L115.025 322.365L115.037 322.399L115.053 322.43L118.036 328.397L118.049 328.424L118.066 328.449L121.049 332.962L121.184 333.166L121.427 333.185L134.212 334.212L134.305 334.22L134.394 334.194L141.121 332.212L152.683 331.247L152.727 331.243L152.769 331.232L160.159 329.294L160.482 329.209L160.527 328.878L161.583 321.126L161.587 321.092V321.058V314.275V314.245L161.584 314.215L160.532 305.523V295.931L162.296 289.604L166.852 291.122L172.766 294.924L172.83 294.965L172.903 294.985L180.574 297.116Z" fill="#F3F9FE" stroke="#D4D4D4"/>
<path d="M98.1625 299.938L95.124 306.479L84.9573 308.355L75.6831 307.404L68.4397 303.586L65.3065 301.659L64.5446 301.19V302.085V302.747L55.3745 307.447L55.2151 307.529L55.1439 307.693L53.1373 312.321L47.5181 314.049L45.5818 308.69L45.5502 308.602L45.4893 308.532L41.2929 303.693L41.2566 303.651L41.212 303.618L35.9665 299.746L35.8895 299.69L35.797 299.665L28.4533 297.729L28.4399 297.726L28.4263 297.723L19.0541 295.802L11.7733 291.963L11.6089 291.877L11.4278 291.918L7.60206 292.801L6.73423 291.2L6.69468 291.127L6.63368 291.07L4.9338 289.502L5.58457 288.902L6.06971 288.454L5.50748 288.108L2.52024 286.271L0.60721 280.094L8.60228 276.406L8.77564 276.326L8.85159 276.151L10.8582 271.522L16.9327 269.654L17.3716 269.519L17.2743 269.071L16.2252 264.231L16.2148 264.183L16.1953 264.138L14.1384 259.394V257.375L15.2366 257.882V258.53V259.378L15.9787 258.967L21.2243 256.063L21.2769 256.034L21.3212 255.994L24.4685 253.09L24.7544 252.826L24.569 252.484L23.774 251.017L25.388 250.273L25.6144 250.168L25.6672 249.925L26.6635 245.329L34.8299 241.562L34.9016 241.529L34.9595 241.475L35.6696 240.82L36.3797 241.475L36.8973 241.953L37.1774 241.307L39.2757 236.467L39.2819 236.453L39.2872 236.438L40.9151 231.932L41.494 233.535L41.5067 233.57L41.5246 233.603L42.5737 235.539L43.1944 236.684L43.4994 235.418L45.5823 226.77L47.3431 223.521L48.9689 225.021L49.5749 225.58L49.7906 224.785L50.802 221.052L55.9417 216.31L56.1026 216.162V215.943V210.135V209.987L56.0218 209.863L52.9294 205.108L51.9062 199.444V194.827L54.9415 191.093L54.9504 191.082L54.9588 191.071L58.9142 185.597L62.7027 187.344L69.981 192.141L73.0984 195.017L73.1341 195.05L73.1755 195.075L79.4287 198.921L83.5526 202.726L87.7196 208.493L87.7699 208.562L87.8404 208.611L92.0368 211.515L92.0479 211.522L92.0594 211.529L98.3361 215.39L103.565 219.249L103.582 219.261L103.6 219.272L109.894 223.144L109.904 223.15L109.914 223.155L115.107 226.03L119.259 229.861L119.276 229.876L119.293 229.89L125.588 234.729L125.609 234.745L125.631 234.758L128.756 236.681L135.03 241.504L135.051 241.52L135.073 241.534L144.366 247.249L145.355 249.989L145.397 250.103L145.487 250.186L151.781 255.994L151.807 256.017L151.836 256.037L156.004 258.921L160.174 262.769L160.21 262.802L160.251 262.827L166.546 266.699L166.571 266.714L166.598 266.727L170.774 268.653L179.144 273.479L179.147 273.481L190.267 280.01L186.301 287.328L186.194 287.525L186.271 287.736L189.203 295.853L181.524 296.739L173.316 294.845L168.154 291.035L168.097 290.993L168.03 290.969L162.785 289.033L162.272 288.844L162.129 289.371L160.031 297.114L160.013 297.179V297.245V306.924V306.954L160.017 306.984L161.062 315.665V322.376L160.063 329.755L153.084 331.594L141.588 332.559L141.544 332.562L141.502 332.573L134.24 334.488L121.949 333.543L118.976 329.886L115.864 323.187L112.725 314.497L110.626 308.69L110.585 308.575L110.495 308.492L105.373 303.766L104.354 298.124L104.248 297.538L103.688 297.744L98.4428 299.68L98.2494 299.751L98.1625 299.938Z" fill="#F3F9FE" stroke="#D4D4D4"/>
<path d="M186.467 350.754L191.904 356.595L191.917 356.609L191.931 356.623L196.133 360.492L196.206 360.559L196.299 360.593L201.458 362.494L205.517 366.231L209.614 374.719L208.581 383.28L208.57 383.37L208.592 383.457L210.689 392.149L211.737 397.939L211.739 397.947L211.741 397.956L212.791 402.793L212.803 402.847L212.826 402.897L215.978 409.669L216.02 409.759L216.092 409.826L221.345 414.662L221.371 414.686L221.399 414.706L225.201 417.331L222.334 421.731L218.286 426.39L208.1 427.328L200.971 424.515L196.849 419.77L196.813 419.729L196.768 419.696L191.516 415.827L191.49 415.807L191.461 415.791L186.209 412.889L186.096 412.827H185.967H183.866H183.756L183.657 412.873L181.948 413.66L179.032 409.185L178.954 409.064L178.823 409.004L175.47 407.46L177.825 406.015L178.063 405.868V405.588V404.621V404.121H177.563H174.411H174.27L174.15 404.195L171.599 405.761L170.698 401.613L170.691 401.58L170.68 401.549L168.579 395.745L168.394 395.234L167.899 395.461L165.798 396.428L165.727 396.461L165.669 396.515L164.618 397.482L164.219 397.85L164.618 398.218L165.269 398.817L161.511 402.278L156.311 405.151L156.234 405.194L156.176 405.261L151.992 410.076L147.811 413.927L141.61 419.636L132.292 421.543L132.064 421.59L131.952 421.794L129.851 425.664L129.804 425.75L129.794 425.848L128.792 435.076H122.966L114.723 434.127L109.578 430.336L109.445 430.239H109.281H105.079H104.97L104.87 430.285L100.768 432.174H91.4227H91.377L91.3321 432.182L86.0963 433.146L78.6647 434.002L80.2806 431.026L84.4467 426.23L84.5218 426.144L84.5518 426.033L86.6433 418.33L88.7024 413.589L91.8104 409.774L92.0025 409.538L91.8813 409.259L89.7803 404.422L89.6886 404.211L89.4684 404.143L86.3708 403.192L78.2236 398.503L77.2678 392.342L83.2279 389.598L83.3469 389.543L83.4238 389.437L87.6257 383.633L87.6447 383.607L87.6601 383.578L89.7611 379.709L89.7791 379.676L89.7919 379.641L91.8594 373.929L96.7995 368.47L100.596 370.219L104.72 374.016L108.904 378.831L108.997 378.939L109.134 378.981L112.286 379.949L112.403 379.984L112.523 379.962L117.776 378.995L117.881 378.976L117.969 378.915L122.124 376.045L129.424 373.164L129.511 373.13L129.579 373.067L133.684 369.288L141.875 367.402L150 368.337L154.075 373.027L154.169 373.135L154.305 373.177L160.608 375.112L160.636 375.12L160.665 375.126L171.108 377.049L175.181 378.924L176.174 379.838L176.727 380.348L176.983 379.641L179.084 373.837L179.102 373.787L179.109 373.734L180.143 366.12L184.271 360.417L184.319 360.351L184.343 360.272L186.444 353.501L186.467 353.429V353.353V350.754Z" fill="#F3F9FE" stroke="#D4D4D4"/>
<path d="M182.909 413.177L183.058 413.2L183.194 413.137L185.206 412.208H187.079L192.217 415.053L197.425 418.897L201.612 423.726L201.692 423.819L201.806 423.864L209.196 426.786L209.307 426.83L209.426 426.819L219.98 425.845L219.984 425.845L231.535 424.876L237.507 425.794L240.523 435.069L237.424 442.694L237.335 442.912L237.448 443.12L240.615 448.965L243.744 454.74L244.786 460.506L244.8 460.585L244.838 460.655L249.061 468.449L249.154 468.619L249.338 468.683L257.649 471.559L260.727 475.345L260.767 475.394L260.818 475.432L265.975 479.239L267.923 484.629L260.776 491.223L260.698 491.295L260.656 491.392L258.553 496.242L255.52 501.839L247.332 502.784L247.2 502.799L247.092 502.878L241.813 506.775L241.736 506.832L241.685 506.914L237.627 513.467L228.601 512.542L224.527 508.782L221.454 505.001L219.369 496.344L219.349 496.261L219.302 496.189L216.134 491.318L216.128 491.308L216.12 491.298L214.164 488.589L215.13 485.915L215.191 485.745L215.13 485.576L214.074 482.653L214.045 482.573L213.991 482.508L210.824 478.611L210.751 478.521L210.645 478.472L204.43 475.605L200.359 469.971L199.319 461.331L199.296 461.149L199.161 461.024L195.044 457.225L194.105 453.76L195.994 452.017L196.32 451.716L196.06 451.357L193.956 448.444L190.795 443.584L190.788 443.573L190.781 443.563L186.577 437.744L184.486 433.887L180.275 425.144L177.125 417.393L176.129 413.719L176.922 412.256L182.909 413.177Z" fill="#F3F9FE" stroke="#D4D4D4"/>
<path d="M199.434 285.932L199.475 285.963L199.522 285.984L207.956 289.867L216.318 293.717L222.572 299.476L228.885 306.257L228.966 306.344L229.078 306.386L234.349 308.327L234.433 308.358H234.522H247.173H258.629L264.835 312.167L265.062 312.307L265.305 312.195L269.476 310.275L273.497 309.349L278.593 311.226L283.803 314.105L289.048 317.968L289.078 317.991L289.112 318.008L296.367 321.826L302.586 332.324L304.659 339.961V349.548L303.688 354.019L292.438 355.902L284.022 356.871L284.016 356.871L274.534 357.842L274.503 357.845L274.473 357.852L266.038 359.793L265.792 359.85L265.692 360.081L263.583 364.935L263.583 364.935L263.579 364.946L260.439 372.656L258.365 375.52L258.319 375.584L258.295 375.658L255.132 385.366L255.128 385.378L255.125 385.39L253.097 392.859L243.91 394.739L243.887 394.744L243.864 394.751L240.701 395.722L240.522 395.777L240.423 395.936L236.227 402.697L232.036 407.521L232.013 407.547L231.994 407.576L228.838 412.42L224.915 417.838L221.129 415.224L215.956 410.461L212.859 403.805L211.818 399.014L210.765 393.198L210.763 393.184L210.76 393.17L208.672 384.521L209.716 375.873L209.733 375.728L209.669 375.596L205.452 366.859L205.411 366.773L205.341 366.708L201.124 362.825L201.051 362.758L200.958 362.724L195.779 360.816L191.649 357.013L185.507 350.415L187.548 339.139L190.59 335.405L195.749 331.605L204.111 328.717L204.448 328.601V328.245V326.303V326.084L204.286 325.935L202.505 324.295L204.353 321.742L204.528 321.5L204.398 321.232L200.181 312.495L200.176 312.484L200.17 312.473L195.963 304.726L193.864 299.892L193.821 299.795L193.744 299.724L188.562 294.953L185.517 286.542L189.387 279.416L194.189 282.069L199.434 285.932Z" fill="#F3F9FE" stroke="#D4D4D4"/>
<path d="M350.86 375.641L357.32 376.497L354.734 379.695L354.471 380.02L354.744 380.336L358.866 385.113L360.904 392.673L358.828 403.259L358.819 403.306V403.355V409.167L357.772 419.843L357.77 419.867V419.891V427.673V435.709L353.198 434.014L353.114 433.983H353.024H338.479L335.47 432.123L330.314 428.298L324.149 418.771V408.219V408.131L324.12 408.049L322.021 402.213L321.847 401.727L321.366 401.918L314.041 404.829L311.188 405.71L309.302 403.961L309.233 403.898L309.146 403.863L301.803 400.945L301.689 400.9L301.567 400.912L292.15 401.882H284.874L273.375 399.944L273.375 399.944L273.368 399.943L267.074 398.97L266.811 398.929L266.63 399.125L260.454 405.806L254.332 406.752L254.282 406.76L254.234 406.777L243.743 410.668L243.684 410.69L243.632 410.726L239.471 413.62L237.459 414.552L226.215 417.159L229.636 412.401L229.643 412.392L229.649 412.381L232.778 407.546L236.952 402.709L236.978 402.679L236.999 402.645L241.097 395.995L244.042 395.085L253.46 393.145L253.762 393.082L253.842 392.785L255.937 385.015L259.056 375.374L261.109 372.519L261.144 372.471L261.166 372.415L264.312 364.638L266.307 360.012L274.424 358.13L283.834 357.161L283.841 357.16L292.234 356.188L292.246 356.186L292.259 356.184L303.682 354.258L312.978 357.131L319.226 360.028L324.422 362.919L330.687 367.759L330.732 367.794L330.783 367.817L337.077 370.736L337.108 370.75L337.14 370.76L340.274 371.728L350.752 375.614L350.805 375.634L350.86 375.641Z" fill="#F3F9FE" stroke="#D4D4D4"/>
<path d="M229.697 425.584L219.394 426.451L222.783 422.529L222.806 422.503L222.824 422.474L225.858 417.794L238.234 414.929L238.284 414.918L238.331 414.896L240.426 413.926L240.466 413.908L240.502 413.883L244.64 411.009L255.011 407.169L261.247 406.207L261.42 406.18L261.538 406.052L267.644 399.457L273.661 400.386L273.668 400.387L285.186 402.326L285.227 402.333H285.269H292.603H292.629L292.655 402.33L301.962 401.372L309.096 404.203L311.123 406.079L311.335 406.275L311.61 406.19L314.753 405.22L314.772 405.214L314.79 405.207L321.645 402.488L323.536 407.74V418.322V418.47L323.616 418.594L329.902 428.294L329.952 428.37L330.024 428.424L335.263 432.303L335.28 432.316L335.298 432.327L338.441 434.267L338.562 434.342H338.704H353.283L358.196 436.161L360.224 443.672L360.248 443.76L360.301 443.833L364.492 449.653L364.5 449.665L364.509 449.676L367.541 453.418V463.911V463.964L367.552 464.016L368.511 468.457L359.499 472.165L352.197 474.097L352.187 474.1L352.177 474.103L349.034 475.073L348.952 475.098L348.884 475.148L343.645 479.028L343.589 479.07L343.547 479.125L338.368 485.837L330.072 490.637L329.902 490.735L329.844 490.922L327.749 497.712L327.742 497.733L327.738 497.754L326.748 502.336L321.802 504.167L312.434 506.095L303.03 507.062L303.01 507.064L302.99 507.068L292.512 509.008L292.45 509.019L292.393 509.046L288.302 510.939H286.589L283.625 506.366L281.549 500.6L281.497 500.458L281.376 500.368L276.193 496.529L270.997 489.794L270.971 489.761L270.941 489.733L266.839 485.936L264.785 480.231L264.734 480.088L264.612 479.998L259.424 476.156L256.321 472.326L256.231 472.215L256.096 472.168L247.898 469.322L243.838 461.803L242.804 456.062L242.79 455.984L242.752 455.913L239.609 450.093L236.577 444.481L239.632 436.939L239.7 436.77L239.644 436.597L236.501 426.898L236.406 426.605L236.102 426.558L229.815 425.588L229.756 425.579L229.697 425.584Z" fill="#F3F9FE" stroke="#D4D4D4"/>
<mask id="path-22-inside-1_448_1905" fill="white">
<path d="M410.087 343.402H411.134L413.228 340.476L419.51 349.255L420.557 355.107V356.083L423.698 364.862L428.932 379.493L434.167 392.174L440.449 408.756L447.778 418.51L454.06 417.535L459.294 422.412L460.341 425.338L464.529 434.117L471.858 446.797L474.999 451.675L481.281 449.724H485.469L491.75 448.748L501.173 446.797L509.549 442.896L514.784 439.969L516.878 438.019H528.394L532.582 445.822L534.676 448.748L539.911 454.601L542.005 461.429L546.193 465.33L547.24 472.158L542.005 479.962L535.723 489.716V495.569L529.441 499.47L525.253 503.372H520.019L515.831 502.397H511.643L509.549 508.249L507.455 516.053L506.408 519.954L505.361 521.905L506.408 524.831H502.22L491.75 526.782H482.328H473.952L466.623 522.881L462.435 517.028L457.2 512.151L453.013 510.2L447.778 506.298L448.825 501.421L450.919 497.52L449.872 489.716V484.839L447.778 480.937L449.872 476.06V475.085L446.731 471.183L444.637 462.404L442.543 456.552H437.308L435.214 463.38L432.073 469.232L425.791 473.134L417.416 475.085L413.228 476.06H411.134L404.852 473.134L401.711 470.208L400.664 468.257L397.523 462.404L395.429 454.601L387.054 452.65L381.819 455.576L382.866 458.503V459.478L378.678 463.38L372.396 466.306L368.208 469.232L367.161 464.355V453.625L364.02 449.724L359.832 443.871L357.739 436.068V427.289V419.486L358.786 408.756V402.903L360.879 392.174L358.786 384.37L354.598 379.493L357.739 375.591L365.067 372.665L370.302 364.862L378.678 357.058L383.913 354.132L389.148 350.23L394.382 345.353L399.617 341.452L402.758 337.55L410.087 343.402Z"/>
</mask>
<path d="M410.087 343.402H411.134L413.228 340.476L419.51 349.255L420.557 355.107V356.083L423.698 364.862L428.932 379.493L434.167 392.174L440.449 408.756L447.778 418.51L454.06 417.535L459.294 422.412L460.341 425.338L464.529 434.117L471.858 446.797L474.999 451.675L481.281 449.724H485.469L491.75 448.748L501.173 446.797L509.549 442.896L514.784 439.969L516.878 438.019H528.394L532.582 445.822L534.676 448.748L539.911 454.601L542.005 461.429L546.193 465.33L547.24 472.158L542.005 479.962L535.723 489.716V495.569L529.441 499.47L525.253 503.372H520.019L515.831 502.397H511.643L509.549 508.249L507.455 516.053L506.408 519.954L505.361 521.905L506.408 524.831H502.22L491.75 526.782H482.328H473.952L466.623 522.881L462.435 517.028L457.2 512.151L453.013 510.2L447.778 506.298L448.825 501.421L450.919 497.52L449.872 489.716V484.839L447.778 480.937L449.872 476.06V475.085L446.731 471.183L444.637 462.404L442.543 456.552H437.308L435.214 463.38L432.073 469.232L425.791 473.134L417.416 475.085L413.228 476.06H411.134L404.852 473.134L401.711 470.208L400.664 468.257L397.523 462.404L395.429 454.601L387.054 452.65L381.819 455.576L382.866 458.503V459.478L378.678 463.38L372.396 466.306L368.208 469.232L367.161 464.355V453.625L364.02 449.724L359.832 443.871L357.739 436.068V427.289V419.486L358.786 408.756V402.903L360.879 392.174L358.786 384.37L354.598 379.493L357.739 375.591L365.067 372.665L370.302 364.862L378.678 357.058L383.913 354.132L389.148 350.23L394.382 345.353L399.617 341.452L402.758 337.55L410.087 343.402Z" fill="#F3F9FE" stroke="#D4D4D4" stroke-width="2" mask="url(#path-22-inside-1_448_1905)"/>
<path d="M468.93 326.813L468.975 326.854L469.027 326.884L474.257 329.797L474.257 329.797L474.266 329.802L481.587 333.686L488.909 337.571L488.935 337.585L488.963 337.595L501.194 342.327V351.695V355.58V355.6L501.196 355.621L502.242 368.245L502.244 368.269L502.248 368.292L503.291 374.101L504.335 383.795L504.37 384.122L504.684 384.219L510.959 386.161L511 386.173L511.042 386.179L518.321 387.145L524.495 389.055L527.579 390.964L527.633 390.998L527.694 391.016L540.232 394.897L545.413 396.821L550.609 399.715L550.625 399.724L550.642 399.732L556.871 402.624L562.037 406.461L567.186 411.242L570.284 416.995L570.294 417.013L570.305 417.029L573.442 421.885L576.574 426.731L576.58 426.74L580.758 433.529L580.794 433.587L580.843 433.633L582.875 435.519L588.065 445.157L588.087 445.198L588.116 445.234L591.254 449.118L591.259 449.124L591.264 449.13L595.148 453.638L585.01 463.992L584.934 464.07L584.897 464.172L582.924 469.668H579.331L576.343 465.969L576.231 465.83L576.055 465.794L566.642 463.852L566.592 463.841H566.541H562.357H561.857V464.341V466.065L560.971 466.888L557.927 469.715L547.079 472.461L546.117 466.208L546.09 466.036L545.963 465.917L541.877 462.124L539.825 455.455L539.793 455.349L539.719 455.268L534.508 449.461L532.451 446.596L528.282 438.856L528.141 438.593H527.842H516.337H516.141L515.997 438.727L513.949 440.628L508.788 443.503L500.49 447.355L491.146 449.283L484.921 450.246H480.776H480.7L480.628 450.268L474.714 452.099L471.789 447.572L464.484 434.975L460.319 426.276L459.282 423.387L459.241 423.272L459.152 423.189L453.922 418.334L453.745 418.169L453.505 418.206L447.526 419.132L440.427 409.716L434.177 393.274L434.174 393.267L434.171 393.261L428.946 380.648L423.721 366.093L420.613 357.435V356.551V356.506L420.605 356.462L419.559 350.636L419.539 350.524L419.473 350.433L413.197 341.693L412.791 341.127L412.385 341.693L410.443 344.398H409.828L403.059 339.01L407.934 333.579L407.934 333.579L407.94 333.571L412.124 328.716L416.237 323.942L424.407 320.149H436.847H444.169H454.559L464.836 323.012L468.93 326.813Z" fill="#F3F9FE" stroke="#D4D4D4"/>
<path d="M622.19 357.013L626.509 358.634L623.119 361.019L622.906 361.169V361.428V367.21L619.807 376.901L619.722 377.166L619.902 377.378L624.067 382.261L624.125 382.329L624.202 382.372L629.408 385.302L629.522 385.366H629.653H639.989L649.177 388.239L654.082 392.839L653.12 396.448L651.043 403.265L647.977 411.893L643.942 414.732L643.936 414.736L643.93 414.741L638.724 418.647L638.702 418.664L638.682 418.682L633.476 423.565L633.388 423.648L633.347 423.762L631.272 429.601L628.198 436.328L623.209 441.009H612.995H606.747H606.247V441.509V449.137L602.417 453.628L596.517 451.784L594.465 450.822L593.924 450.568L593.77 451.146L592.974 454.131L589.433 449.98L586.343 446.115L581.159 436.39L581.12 436.317L581.06 436.261L579.027 434.354L574.898 427.576L574.898 427.576L574.892 427.567L571.768 422.684L568.655 417.818L565.541 411.976L565.502 411.903L565.442 411.846L560.236 406.963L560.216 406.944L560.194 406.928L554.988 403.022L554.947 402.991L554.9 402.969L548.67 400.047L543.48 397.126L543.447 397.107L543.411 397.094L538.205 395.141L538.192 395.136L538.178 395.132L525.746 391.244L522.677 389.325L522.622 389.291L522.561 389.272L516.314 387.319L516.273 387.306L516.231 387.301L508.985 386.33L503.091 384.487L502.085 375.047L502.083 375.03L502.08 375.013L501.043 369.177L500.005 356.525V352.639V343.553L505.603 345.303L505.631 345.312L505.66 345.318L510.866 346.294L516.072 347.271L516.164 347.288L516.257 347.271L521.462 346.294L521.525 346.282L521.583 346.255L527.83 343.326L527.85 343.316L527.87 343.304L536.2 338.421L536.206 338.418L536.212 338.414L539.335 336.461L539.377 336.435L539.412 336.402L542.536 333.472L542.544 333.464L542.552 333.457L553.978 321.765L559.153 317.882L559.175 317.865L559.195 317.846L564.401 312.963L564.421 312.944L564.439 312.923L568.454 308.216H575.436L581.577 310.136L585.64 312.041L589.588 315.745V323.239L587.546 328.028L587.54 328.042L587.535 328.057L586.494 330.987L586.465 331.068V331.154V337.99V338.337L586.789 338.458L591.955 340.396L600.247 345.258L600.247 345.258L600.255 345.262L605.461 348.192L605.477 348.201L605.494 348.209L613.796 352.102L616.894 354.039L616.904 354.046L616.914 354.051L622.12 356.981L622.153 357L622.19 357.013Z" fill="#F3F9FE" stroke="#D4D4D4"/>
<path d="M691.458 298.506L692.177 301.836L692.038 301.81L686.773 300.835L686.728 300.826H686.682H683.523H683.413L683.313 300.873L679.201 302.777H667.729H667.7L667.671 302.78L659.248 303.755L659.06 303.777L658.933 303.917L653.669 309.768L653.668 309.768L653.662 309.776L649.45 314.651L649.436 314.668L649.423 314.686L645.211 320.537L645.192 320.563L645.177 320.592L643.071 324.492L643.027 324.572L643.015 324.663L641.976 332.359L637.882 338.994L634.824 340.882L634.265 341.227L634.747 341.674L635.516 342.386L634.677 343.939L628.402 350.719L628.295 350.835L628.274 350.992L627.304 358.174L622.661 356.454L617.439 353.553L614.29 351.608L614.265 351.593L614.238 351.58L605.831 347.687L600.59 344.775L600.582 344.771L592.166 339.899L592.129 339.878L592.089 339.863L587.151 338.034V331.643L588.169 328.814L590.269 323.953L590.309 323.858V323.755V315.953V315.735L590.149 315.587L585.937 311.686L585.879 311.632L585.808 311.599L581.596 309.649L581.565 309.635L581.533 309.625L575.215 307.675L575.143 307.652H575.068H568.535L570.243 304.489L570.254 304.47L570.262 304.45L572.368 299.574L572.388 299.529L572.398 299.482L574.493 289.778L578.644 280.168L579.62 279.265L579.656 279.231L579.686 279.19L583.857 273.396L591.141 267.613L596.354 264.717L602.633 261.81L611.008 258.901L615.138 257.945H620.345H631.928H632.027L632.118 257.907L641.595 254.007L641.64 253.988L641.681 253.961L649.051 249.086L649.051 249.086L649.061 249.079L657.456 243.248L668.901 237.467H679.864V243.793V243.919L679.924 244.03L683.065 249.848L685.142 255.618L686.188 262.397L686.195 262.444L686.212 262.49L689.341 271.184V279.873V279.903L689.345 279.933L690.397 288.703L690.397 288.709L691.45 298.455L691.453 298.481L691.458 298.506Z" fill="#F3F9FE" stroke="#D4D4D4"/>
</svg>
